<svg xmlns="http://www.w3.org/2000/svg" viewBox="0 0 1379.4 1379.4"><path class="st0" d="M528.7 963.2c-2.3-2.3-5-3.9-8.3-5-3.3-1.1-7.1-1.6-11.4-1.6h-9.7v54.8h11.6c4.4 0 8.2-.6 11.3-1.9 3.1-1.2 5.7-3 7.7-5.4 2-2.4 3.4-5.2 4.3-8.6.9-3.4 1.4-7.2 1.4-11.5 0-4.7-.6-8.8-1.7-12.3-1.2-3.4-2.9-6.2-5.2-8.5zM808.6 957.7l-13.5 36.4h27.2l-13.5-36.4M546 832.1h-.3L525.6 886h40.3M894.5 963.2c-2.3-2.3-5-3.9-8.3-5s-7.1-1.6-11.4-1.6h-9.7v54.8h11.6c4.4 0 8.2-.6 11.3-1.9 3.1-1.2 5.7-3 7.7-5.4 2-2.4 3.4-5.2 4.3-8.6.9-3.4 1.4-7.2 1.4-11.5 0-4.7-.6-8.8-1.7-12.3-1.3-3.4-3-6.2-5.2-8.5zM752.7 963.2c-2.3-2.3-5-3.9-8.3-5-3.3-1.1-7.1-1.6-11.4-1.6h-9.7v54.8h11.6c4.4 0 8.2-.6 11.3-1.9 3.1-1.2 5.7-3 7.7-5.4 2-2.4 3.4-5.2 4.3-8.6.9-3.4 1.4-7.2 1.4-11.5 0-4.7-.6-8.8-1.7-12.3-1.2-3.4-2.9-6.2-5.2-8.5zM948.7 841c-2.5-3.7-5.8-6.7-9.7-8.8-3.9-2.1-8.6-3.2-14-3.2s-10.1 1.1-14 3.2c-3.9 2.1-7.1 5.1-9.6 8.8-2.5 3.7-4.4 8.2-5.5 13.3-1.2 5.1-1.8 10.7-1.8 16.7 0 6.1.6 11.7 1.8 16.8 1.2 5.1 3 9.6 5.6 13.3s5.7 6.6 9.6 8.7c3.9 2.1 8.5 3.1 14 3.1 5.4 0 10.1-1 14-3.1 3.9-2.1 7.1-5 9.6-8.7 2.5-3.7 4.4-8.1 5.6-13.3 1.2-5.1 1.8-10.7 1.8-16.8 0-6-.6-11.6-1.8-16.7-1.2-5.1-3-9.5-5.6-13.3zM819.3 832.1L799.2 886h40.3l-19.9-53.9"/><path class="st0" d="M689.7 0C308.8 0 0 308.8 0 689.7s308.8 689.7 689.7 689.7 689.7-308.8 689.7-689.7S1070.6 0 689.7 0zm-241 954.1c-.2.6-.5 1.2-.9 1.6-.4.5-1 .9-1.6 1.2-.6.3-1.4.4-2.2.4h-28.2v20.4h26.8c.9 0 1.6.1 2.2.4.6.3 1.2.7 1.6 1.2.4.5.7 1 .9 1.6.2.6.3 1.2.3 1.8 0 .6-.1 1.3-.3 1.9-.2.6-.5 1.2-.9 1.6-.4.5-1 .9-1.6 1.2-.6.3-1.4.4-2.2.4h-26.8v26.3c0 1.1-.2 2.1-.6 2.9-.4.8-.9 1.5-1.6 2.1-.6.5-1.4 1-2.2 1.2-.8.3-1.7.4-2.5.4s-1.7-.1-2.5-.4c-.8-.3-1.6-.7-2.2-1.2-.6-.5-1.2-1.2-1.6-2.1-.4-.8-.6-1.8-.6-2.9v-60.3c0-1 .2-1.9.5-2.7.4-.8.8-1.6 1.5-2.2.6-.6 1.3-1.1 2.1-1.4.8-.3 1.6-.5 2.5-.5h35.3c.9 0 1.6.1 2.2.4.6.3 1.2.7 1.6 1.2.4.5.7 1 .9 1.6.2.6.3 1.2.3 1.9.1.8 0 1.4-.2 2zm25 60c0 1.1-.2 2-.6 2.9-.4.8-.9 1.5-1.6 2-.6.5-1.4 1-2.2 1.2-.8.3-1.7.4-2.5.4-.9 0-1.7-.1-2.5-.4-.8-.3-1.5-.7-2.2-1.2-.6-.5-1.1-1.2-1.5-2-.4-.8-.6-1.8-.6-2.9v-60.5c0-1.1.2-2.1.6-2.9.4-.8.9-1.5 1.6-2.1.6-.5 1.4-1 2.2-1.2.8-.3 1.7-.4 2.5-.4.9 0 1.7.1 2.5.4.8.3 1.6.7 2.2 1.2.6.5 1.2 1.2 1.6 2.1.4.8.6 1.8.6 2.9v60.5zm-21.6-86c-7.4 0-14.2-1.4-20.4-4.1s-11.5-6.6-15.9-11.6-7.8-10.9-10.2-17.9c-2.4-6.9-3.6-14.6-3.6-23 0-8.9 1.3-16.8 3.8-23.9 2.6-7.1 6.1-13.2 10.7-18.1 4.6-5 10-8.8 16.2-11.5 6.3-2.7 13.1-4 20.5-4 4.6 0 9.4.5 14.3 1.6s10 2.8 15.2 5c1.7.7 2.9 1.7 3.6 3 .8 1.3 1.1 2.7 1.1 4 0 1-.2 1.9-.5 2.8-.3.9-.8 1.7-1.4 2.5-.6.7-1.4 1.3-2.3 1.7-.9.4-1.9.6-3 .6-.9 0-1.9-.2-3-.6-8.1-2.9-15.4-4.3-21.7-4.3-5.3 0-9.9.9-14 2.7-4 1.8-7.4 4.5-10.2 7.9-2.7 3.5-4.8 7.7-6.2 12.8-1.4 5-2.1 10.8-2.1 17.3 0 5.9.6 11.3 1.9 16.2 1.2 4.9 3.1 9.1 5.7 12.6s5.7 6.3 9.6 8.2c3.8 2 8.3 3 13.5 3 3.6 0 7.5-.5 11.6-1.5s8.7-2.6 13.5-4.7c.7-.3 1.3-.5 1.9-.6.6-.1 1.2-.2 1.8-.2 1.1 0 2 .2 2.8.6.8.4 1.6 1 2.2 1.7.6.7 1.1 1.5 1.4 2.4.3.9.5 1.8.5 2.8 0 1.6-.5 3.1-1.4 4.7-.9 1.5-2.4 2.8-4.6 3.8-11.3 5.5-21.7 8.1-31.3 8.1zm95.3 71.9c-1.8 4.5-4.3 8.4-7.6 11.4-3.3 3.1-7.4 5.4-12.2 7-4.8 1.6-10.3 2.4-16.3 2.4h-18.7c-.9 0-1.8-.2-2.6-.5s-1.6-.8-2.2-1.4c-.6-.6-1.1-1.3-1.5-2.1-.4-.8-.5-1.7-.5-2.6v-60.3c0-.9.2-1.8.5-2.6.4-.8.8-1.5 1.5-2.1.6-.6 1.3-1.1 2.2-1.4.8-.4 1.7-.5 2.6-.5h18.2c6.6 0 12.4.8 17.3 2.5s9 4.1 12.3 7.2c3.3 3.2 5.7 7 7.3 11.6 1.6 4.6 2.4 9.9 2.4 15.8-.1 5.8-1 11-2.7 15.6zm-52.2-83.1c0-.5 0-1 .1-1.6.1-.5.2-1.1.5-1.6l31.9-79.7c1.3-3.5 2.5-6.4 3.8-8.7 1.3-2.3 2.6-4 4.1-5.3 1.4-1.3 3-2.2 4.7-2.7 1.7-.5 3.6-.8 5.7-.8s4 .3 5.8.8c1.7.5 3.3 1.5 4.7 2.8 1.4 1.3 2.8 3.1 4.1 5.4 1.3 2.3 2.5 5.1 3.7 8.5l32 79.7c.4 1 .5 2 .5 3 0 1.4-.3 2.6-.9 3.7-.6 1.1-1.4 2-2.3 2.8-1 .8-2 1.3-3.3 1.7-1.2.4-2.5.6-3.7.6-1.9 0-3.6-.5-5.3-1.6-1.6-1-2.7-2.7-3.3-4.9l-7.9-20.3h-48.6l-7.8 20.3c-.6 2.3-1.7 3.9-3.3 4.9-1.6 1-3.3 1.5-5.1 1.5-1.2 0-2.4-.2-3.6-.6-1.2-.4-2.3-1-3.2-1.7-.9-.8-1.7-1.7-2.3-2.7-.7-1-1-2.2-1-3.5zm116.2 100.7c-.2.6-.5 1.2-.9 1.6-.4.5-1 .9-1.6 1.2-.6.3-1.4.4-2.2.4h-38.2c-.9 0-1.7-.2-2.5-.5-.8-.4-1.5-.8-2.1-1.4-.6-.6-1.1-1.3-1.5-2.1-.4-.8-.6-1.6-.6-2.5v-60.4c0-.9.2-1.7.5-2.5s.8-1.5 1.4-2.1c.6-.6 1.3-1.1 2.1-1.5.8-.4 1.6-.5 2.6-.5h37.3c.9 0 1.6.1 2.2.4.6.3 1.2.7 1.6 1.2.4.5.7 1 .9 1.6.2.6.3 1.2.3 1.9 0 .6-.1 1.2-.3 1.8-.2.6-.5 1.2-.9 1.6-.4.5-1 .9-1.6 1.2-.6.3-1.4.4-2.2.4h-30.4V978h28.5c.9 0 1.6.1 2.3.4.6.3 1.2.7 1.6 1.2.4.5.7 1 .9 1.6.2.6.3 1.2.3 1.9 0 .6-.1 1.2-.3 1.8-.2.6-.5 1.2-1 1.6-.4.5-1 .9-1.6 1.2-.6.3-1.4.4-2.2.4h-28.5v22.5h31.5c.9 0 1.6.1 2.2.4.6.3 1.2.7 1.6 1.2.4.5.7 1 .9 1.6.2.6.3 1.2.3 1.9 0 .6-.2 1.3-.4 1.9zm60.3-.1c-.2.6-.5 1.2-1 1.7-.4.5-1 .9-1.6 1.2-.6.3-1.4.4-2.3.4h-36.4c-.9 0-1.8-.2-2.6-.5-.8-.4-1.6-.8-2.2-1.5s-1.1-1.3-1.5-2.2c-.4-.8-.6-1.7-.6-2.7v-60.1c0-1.1.2-2.1.6-2.9.4-.8.9-1.5 1.6-2.1.6-.5 1.4-1 2.2-1.2.8-.3 1.7-.4 2.6-.4.9 0 1.7.1 2.5.4.8.3 1.6.7 2.2 1.2.6.5 1.2 1.2 1.6 2.1.4.8.6 1.8.6 2.9v56.6H667c.9 0 1.6.2 2.3.5.6.3 1.2.7 1.6 1.2.4.5.8 1 1 1.6.2.6.3 1.2.3 1.9-.2.7-.3 1.3-.5 1.9zm5.6-92.1c-1.2 0-2.3-.2-3.5-.5-1.1-.4-2.2-.9-3.1-1.6-.9-.7-1.7-1.6-2.4-2.7-.6-1.1-1.1-2.4-1.3-3.9-.6-5.4-1-10.1-1.4-14.2-.4-4-.8-7.5-1.3-10.4-.5-2.9-1.1-5.3-1.9-7.2-.8-1.9-1.9-3.3-3.4-4.4-1.4-1.1-3.3-1.8-5.5-2.2-2.3-.4-5-.6-8.4-.6h-21v38.2c0 1.6-.3 3-.9 4.3-.6 1.2-1.4 2.2-2.3 3-1 .8-2 1.4-3.2 1.8-1.2.4-2.4.6-3.7.6-1.3 0-2.5-.2-3.7-.6-1.2-.4-2.3-1-3.2-1.8-.9-.8-1.7-1.8-2.3-3-.6-1.2-.9-2.6-.9-4.3v-89.4c0-1.4.3-2.7.8-3.9s1.3-2.3 2.2-3.1c.9-.9 2-1.6 3.2-2.1 1.2-.5 2.5-.8 3.9-.8h34.2c5.1 0 10 .4 14.8 1.2 4.7.8 8.9 2.3 12.6 4.4 3.6 2.1 6.6 4.9 8.8 8.5 2.2 3.6 3.3 8.2 3.3 13.7 0 3-.5 5.9-1.4 8.6-.9 2.7-2.4 5.1-4.2 7.2-1.9 2.1-4.3 3.9-7.2 5.5-2.9 1.5-6.4 2.7-10.4 3.4v.3c3.8.6 6.9 1.4 9.4 2.7 2.5 1.2 4.5 2.8 6 4.7 1.5 1.9 2.7 4.3 3.5 6.9.8 2.7 1.3 5.7 1.7 9.1.4 3 .7 5.9.9 8.6.3 2.7.5 5.1.7 7.2.2 2.4.4 4.7.5 6.7v.9c0 1.5-.3 2.9-.9 4-.6 1.2-1.3 2.1-2.3 2.9-.9.8-2 1.4-3.2 1.8-1 .3-2.2.5-3.5.5zm17.1-93.6c-1.3 0-2.5-.2-3.5-.6-1-.4-1.8-1-2.4-1.7-.6-.7-1.1-1.5-1.4-2.4-.3-.9-.5-1.8-.5-2.8 0-1 .2-1.9.5-2.8.3-.9.8-1.8 1.5-2.5s1.5-1.3 2.4-1.7c1-.5 2.1-.7 3.4-.7h71.7c1.3 0 2.4.2 3.3.7 1 .5 1.8 1 2.4 1.7.7.7 1.1 1.5 1.5 2.4.3.9.5 1.8.5 2.8 0 1-.2 1.9-.5 2.8-.3.9-.8 1.7-1.4 2.5-.6.7-1.4 1.3-2.4 1.7-1 .4-2.1.6-3.4.6h-25.5v84c0 1.6-.3 3-.9 4.3-.6 1.2-1.4 2.3-2.3 3.1-1 .8-2 1.5-3.3 1.9-1.2.4-2.5.6-3.7.6-1.3 0-2.5-.2-3.7-.6-1.2-.4-2.3-1-3.3-1.9-1-.8-1.7-1.9-2.3-3.1-.6-1.2-.9-2.7-.9-4.3v-84h-25.8zm.5 182.3c0 1.1-.2 2-.6 2.9-.4.8-.9 1.5-1.6 2-.6.5-1.4 1-2.2 1.2-.8.3-1.7.4-2.5.4-.9 0-1.7-.1-2.5-.4-.8-.3-1.5-.7-2.2-1.2-.6-.5-1.1-1.2-1.5-2-.4-.8-.6-1.8-.6-2.9v-60.5c0-1.1.2-2.1.6-2.9.4-.8.9-1.5 1.6-2.1.6-.5 1.4-1 2.2-1.2.8-.3 1.7-.4 2.5-.4.9 0 1.7.1 2.5.4.8.3 1.6.7 2.2 1.2.6.5 1.2 1.2 1.6 2.1.4.8.6 1.8.6 2.9v60.5zm76.5-14.1c-1.8 4.5-4.3 8.4-7.6 11.4-3.3 3.1-7.4 5.4-12.2 7-4.8 1.6-10.3 2.4-16.3 2.4h-18.7c-.9 0-1.8-.2-2.6-.5s-1.6-.8-2.2-1.4c-.6-.6-1.1-1.3-1.5-2.1-.4-.8-.5-1.7-.5-2.6v-60.3c0-.9.2-1.8.5-2.6.4-.8.8-1.5 1.5-2.1.6-.6 1.3-1.1 2.2-1.4.8-.4 1.7-.5 2.6-.5h18.2c6.6 0 12.4.8 17.3 2.5s9 4.1 12.3 7.2c3.3 3.2 5.7 7 7.3 11.6 1.6 4.6 2.4 9.9 2.4 15.8-.1 5.8-1 11-2.7 15.6zm71.1 17.3c-.4.7-.9 1.4-1.6 1.9-.6.5-1.4.9-2.2 1.2-.8.3-1.7.4-2.5.4-1.3 0-2.4-.3-3.6-1-1.1-.7-1.9-1.8-2.2-3.3l-5.3-13.7h-32.8l-5.3 13.7c-.4 1.5-1.2 2.6-2.2 3.3-1.1.7-2.2 1-3.5 1-.8 0-1.6-.1-2.5-.4-.8-.3-1.5-.7-2.2-1.2-.6-.5-1.1-1.1-1.5-1.8-.4-.7-.6-1.5-.6-2.4 0-.3 0-.7.1-1 .1-.4.2-.7.3-1.1l21.5-53.8c.9-2.4 1.7-4.3 2.6-5.9.9-1.5 1.8-2.7 2.7-3.6 1-.9 2-1.5 3.2-1.8 1.1-.3 2.4-.5 3.8-.5s2.7.2 3.9.5c1.2.4 2.2 1 3.2 1.9 1 .9 1.9 2.1 2.7 3.6.9 1.5 1.7 3.4 2.5 5.8l21.6 53.8c.2.7.4 1.4.4 2 .1.8-.1 1.6-.5 2.4zm-47.4-118.5l-7.8 20.3c-.6 2.3-1.7 3.9-3.3 4.9-1.6 1-3.3 1.5-5.1 1.5-1.2 0-2.4-.2-3.6-.6-1.2-.4-2.3-1-3.2-1.7-.9-.8-1.7-1.7-2.3-2.7-.6-1.1-.9-2.3-.9-3.6 0-.5 0-1 .1-1.6.1-.5.2-1.1.5-1.6l31.9-79.7c1.3-3.5 2.5-6.4 3.8-8.7 1.3-2.3 2.6-4 4.1-5.3 1.4-1.3 3-2.2 4.7-2.7 1.7-.5 3.6-.8 5.7-.8s4 .3 5.8.8c1.7.5 3.3 1.5 4.7 2.8 1.4 1.3 2.8 3.1 4.1 5.4 1.3 2.3 2.5 5.1 3.7 8.5l32 79.7c.4 1 .5 2 .5 3 0 1.4-.3 2.6-.9 3.7-.6 1.1-1.4 2-2.3 2.8-1 .8-2.1 1.3-3.3 1.7-1.2.4-2.5.6-3.7.6-1.9 0-3.6-.5-5.3-1.6-1.6-1-2.7-2.7-3.3-4.9l-7.9-20.3h-48.7zm3.3-104.3c0-1 .2-1.9.5-2.8.3-.9.8-1.8 1.5-2.5s1.5-1.3 2.4-1.7c1-.5 2.1-.7 3.4-.7h25.9c1.3 0 2.4.2 3.3.7 1 .5 1.8 1 2.4 1.7.7.7 1.1 1.5 1.5 2.4.3.9.5 1.8.5 2.8 0 1-.2 1.9-.5 2.8-.3.9-.8 1.7-1.4 2.5-.6.7-1.4 1.3-2.4 1.7-1 .4-2.1.6-3.4.6h-25.9c-1.3 0-2.5-.2-3.5-.6-1-.4-1.8-1-2.4-1.7-.6-.7-1.1-1.5-1.4-2.4-.3-.9-.5-1.9-.5-2.8zM913.1 1000c-1.8 4.5-4.3 8.4-7.6 11.4-3.3 3.1-7.4 5.4-12.2 7-4.8 1.6-10.3 2.4-16.3 2.4h-18.7c-.9 0-1.8-.2-2.6-.5s-1.6-.8-2.2-1.4c-.6-.6-1.1-1.3-1.5-2.1-.4-.8-.5-1.7-.5-2.6v-60.3c0-.9.2-1.8.5-2.6.4-.8.8-1.5 1.5-2.1.6-.6 1.3-1.1 2.2-1.4.8-.4 1.7-.5 2.6-.5h18.2c6.6 0 12.4.8 17.3 2.5s9 4.1 12.3 7.2c3.3 3.2 5.7 7 7.3 11.6 1.6 4.6 2.4 9.9 2.4 15.8 0 5.8-.9 11-2.7 15.6zm64.1 17.6c-.2.6-.5 1.2-.9 1.6-.4.5-1 .9-1.6 1.2-.6.3-1.4.4-2.2.4h-38.2c-.9 0-1.7-.2-2.5-.5-.8-.4-1.5-.8-2.1-1.4-.6-.6-1.1-1.3-1.5-2.1-.4-.8-.6-1.6-.6-2.5v-60.4c0-.9.2-1.7.5-2.5s.8-1.5 1.4-2.1c.6-.6 1.3-1.1 2.1-1.5.8-.4 1.6-.5 2.6-.5h37.3c.9 0 1.6.1 2.2.4.6.3 1.2.7 1.6 1.2.4.5.7 1 .9 1.6.2.6.3 1.2.3 1.9 0 .6-.1 1.2-.3 1.8-.2.6-.5 1.2-.9 1.6-.4.5-1 .9-1.6 1.2-.6.3-1.4.4-2.2.4h-30.4V978h28.5c.9 0 1.6.1 2.3.4.6.3 1.2.7 1.6 1.2.4.5.7 1 .9 1.6.2.6.3 1.2.3 1.9 0 .6-.1 1.2-.3 1.8-.2.6-.5 1.2-1 1.6-.4.5-1 .9-1.6 1.2-.6.3-1.4.4-2.2.4h-28.5v22.5h31.5c.9 0 1.6.1 2.2.4.6.3 1.2.7 1.6 1.2.4.5.7 1 .9 1.6.2.6.3 1.2.3 1.9-.1.6-.2 1.3-.4 1.9zm-3.1-123.3c-2.3 7-5.6 13-10 18s-9.9 8.9-16.4 11.6c-6.5 2.8-14.1 4.1-22.6 4.1-8.5 0-16-1.4-22.5-4.1-6.5-2.8-12-6.6-16.4-11.6-4.4-5-7.8-11-10.1-18s-3.4-14.7-3.4-23.2 1.1-16.3 3.4-23.3 5.6-13 10.1-18c4.4-5 9.9-8.9 16.4-11.7 6.5-2.8 14-4.1 22.5-4.1s16.1 1.4 22.6 4.1c6.5 2.8 12 6.6 16.4 11.7 4.4 5 7.8 11 10 18 2.3 7 3.4 14.8 3.4 23.3s-1.1 16.2-3.4 23.2zm9.6-198.7c0 30.4-24.6 55-55 55h-478c-30.4 0-55-24.6-55-55v-183h588v183zm0-257h-588v-25c0-30.4 24.6-55 55-55h478c30.4 0 55 24.6 55 55v25z"/><path class="st0" d="M667.4 846.9c0-3.8-.7-6.8-2.1-9-1.4-2.2-3.2-3.8-5.5-4.9-2.2-1.1-4.7-1.8-7.4-2.1-2.7-.3-5.4-.5-8-.5h-20.1v33.4h16.2c3.1 0 6.3-.2 9.5-.5s6.1-1.1 8.7-2.2c2.6-1.2 4.7-2.9 6.3-5.1 1.6-2.2 2.4-5.3 2.4-9.1z"/></svg>