<?xml version="1.0" encoding="utf-8"?>
<!-- Generator: Adobe Illustrator 20.1.0, SVG Export Plug-In . SVG Version: 6.00 Build 0)  -->
<svg version="1.1" id="Layer_1" xmlns="http://www.w3.org/2000/svg" xmlns:xlink="http://www.w3.org/1999/xlink" x="0px" y="0px"
	 viewBox="0 0 1379.4 1379.4" width="100%" style="enable-background:new 0 0 1379.4 1379.4;" xml:space="preserve">
<g>
	<path class="st0" d="M528.7,963.2c-2.3-2.3-5-3.9-8.3-5c-3.3-1.1-7.1-1.6-11.4-1.6h-9.7v54.8h11.6c4.4,0,8.2-0.6,11.3-1.9
		c3.1-1.2,5.7-3,7.7-5.4c2-2.4,3.4-5.2,4.3-8.6c0.9-3.4,1.4-7.2,1.4-11.5c0-4.7-0.6-8.8-1.7-12.3C532.7,968.3,531,965.5,528.7,963.2
		z"/>
	<polygon class="st0" points="808.6,957.7 795.1,994.1 822.3,994.1 808.8,957.7 	"/>
	<polygon class="st0" points="546,832.1 545.7,832.1 525.6,886 565.9,886 	"/>
	<path class="st0" d="M894.5,963.2c-2.3-2.3-5-3.9-8.3-5s-7.1-1.6-11.4-1.6h-9.7v54.8h11.6c4.4,0,8.2-0.6,11.3-1.9
		c3.1-1.2,5.7-3,7.7-5.4c2-2.4,3.4-5.2,4.3-8.6c0.9-3.4,1.4-7.2,1.4-11.5c0-4.7-0.6-8.8-1.7-12.3
		C898.4,968.3,896.7,965.5,894.5,963.2z"/>
	<path class="st0" d="M752.7,963.2c-2.3-2.3-5-3.9-8.3-5c-3.3-1.1-7.1-1.6-11.4-1.6h-9.7v54.8h11.6c4.4,0,8.2-0.6,11.3-1.9
		c3.1-1.2,5.7-3,7.7-5.4c2-2.4,3.4-5.2,4.3-8.6c0.9-3.4,1.4-7.2,1.4-11.5c0-4.7-0.6-8.8-1.7-12.3C756.7,968.3,755,965.5,752.7,963.2
		z"/>
	<path class="st0" d="M948.7,841c-2.5-3.7-5.8-6.7-9.7-8.8c-3.9-2.1-8.6-3.2-14-3.2c-5.4,0-10.1,1.1-14,3.2
		c-3.9,2.1-7.1,5.1-9.6,8.8c-2.5,3.7-4.4,8.2-5.5,13.3c-1.2,5.1-1.8,10.7-1.8,16.7c0,6.1,0.6,11.7,1.8,16.8c1.2,5.1,3,9.6,5.6,13.3
		s5.7,6.6,9.6,8.7c3.9,2.1,8.5,3.1,14,3.1c5.4,0,10.1-1,14-3.1c3.9-2.1,7.1-5,9.6-8.7c2.5-3.7,4.4-8.1,5.6-13.3
		c1.2-5.1,1.8-10.7,1.8-16.8c0-6-0.6-11.6-1.8-16.7C953.1,849.2,951.3,844.8,948.7,841z"/>
	<polygon class="st0" points="819.3,832.1 799.2,886 839.5,886 819.6,832.1 	"/>
	<path class="st0" d="M689.7,0C308.8,0,0,308.8,0,689.7s308.8,689.7,689.7,689.7s689.7-308.8,689.7-689.7S1070.6,0,689.7,0z
		 M448.7,954.1c-0.2,0.6-0.5,1.2-0.9,1.6c-0.4,0.5-1,0.9-1.6,1.2c-0.6,0.3-1.4,0.4-2.2,0.4h-28.2v20.4h26.8c0.9,0,1.6,0.1,2.2,0.4
		c0.6,0.3,1.2,0.7,1.6,1.2c0.4,0.5,0.7,1,0.9,1.6c0.2,0.6,0.3,1.2,0.3,1.8c0,0.6-0.1,1.3-0.3,1.9c-0.2,0.6-0.5,1.2-0.9,1.6
		c-0.4,0.5-1,0.9-1.6,1.2c-0.6,0.3-1.4,0.4-2.2,0.4h-26.8v26.3c0,1.1-0.2,2.1-0.6,2.9c-0.4,0.8-0.9,1.5-1.6,2.1
		c-0.6,0.5-1.4,1-2.2,1.2c-0.8,0.3-1.7,0.4-2.5,0.4s-1.7-0.1-2.5-0.4c-0.8-0.3-1.6-0.7-2.2-1.2c-0.6-0.5-1.2-1.2-1.6-2.1
		c-0.4-0.8-0.6-1.8-0.6-2.9v-60.3c0-1,0.2-1.9,0.5-2.7c0.4-0.8,0.8-1.6,1.5-2.2c0.6-0.6,1.3-1.1,2.1-1.4c0.8-0.3,1.6-0.5,2.5-0.5
		h35.3c0.9,0,1.6,0.1,2.2,0.4c0.6,0.3,1.2,0.7,1.6,1.2c0.4,0.5,0.7,1,0.9,1.6c0.2,0.6,0.3,1.2,0.3,1.9
		C449,952.9,448.9,953.5,448.7,954.1z M473.7,1014.1c0,1.1-0.2,2-0.6,2.9c-0.4,0.8-0.9,1.5-1.6,2c-0.6,0.5-1.4,1-2.2,1.2
		c-0.8,0.3-1.7,0.4-2.5,0.4c-0.9,0-1.7-0.1-2.5-0.4c-0.8-0.3-1.5-0.7-2.2-1.2c-0.6-0.5-1.1-1.2-1.5-2c-0.4-0.8-0.6-1.8-0.6-2.9
		v-60.5c0-1.1,0.2-2.1,0.6-2.9c0.4-0.8,0.9-1.5,1.6-2.1c0.6-0.5,1.4-1,2.2-1.2c0.8-0.3,1.7-0.4,2.5-0.4c0.9,0,1.7,0.1,2.5,0.4
		c0.8,0.3,1.6,0.7,2.2,1.2c0.6,0.5,1.2,1.2,1.6,2.1c0.4,0.8,0.6,1.8,0.6,2.9V1014.1z M452.1,928.1c-7.4,0-14.2-1.4-20.4-4.1
		s-11.5-6.6-15.9-11.6c-4.4-5-7.8-10.9-10.2-17.9c-2.4-6.9-3.6-14.6-3.6-23c0-8.9,1.3-16.8,3.8-23.9c2.6-7.1,6.1-13.2,10.7-18.1
		c4.6-5,10-8.8,16.2-11.5c6.3-2.7,13.1-4,20.5-4c4.6,0,9.4,0.5,14.3,1.6c4.9,1.1,10,2.8,15.2,5c1.7,0.7,2.9,1.7,3.6,3
		c0.8,1.3,1.1,2.7,1.1,4c0,1-0.2,1.9-0.5,2.8c-0.3,0.9-0.8,1.7-1.4,2.5c-0.6,0.7-1.4,1.3-2.3,1.7c-0.9,0.4-1.9,0.6-3,0.6
		c-0.9,0-1.9-0.2-3-0.6c-8.1-2.9-15.4-4.3-21.7-4.3c-5.3,0-9.9,0.9-14,2.7c-4,1.8-7.4,4.5-10.2,7.9c-2.7,3.5-4.8,7.7-6.2,12.8
		c-1.4,5-2.1,10.8-2.1,17.3c0,5.9,0.6,11.3,1.9,16.2c1.2,4.9,3.1,9.1,5.7,12.6c2.6,3.5,5.7,6.3,9.6,8.2c3.8,2,8.3,3,13.5,3
		c3.6,0,7.5-0.5,11.6-1.5c4.1-1,8.7-2.6,13.5-4.7c0.7-0.3,1.3-0.5,1.9-0.6c0.6-0.1,1.2-0.2,1.8-0.2c1.1,0,2,0.2,2.8,0.6
		c0.8,0.4,1.6,1,2.2,1.7c0.6,0.7,1.1,1.5,1.4,2.4c0.3,0.9,0.5,1.8,0.5,2.8c0,1.6-0.5,3.1-1.4,4.7c-0.9,1.5-2.4,2.8-4.6,3.8
		C472.1,925.5,461.7,928.1,452.1,928.1z M547.4,1000c-1.8,4.5-4.3,8.4-7.6,11.4c-3.3,3.1-7.4,5.4-12.2,7c-4.8,1.6-10.3,2.4-16.3,2.4
		h-18.7c-0.9,0-1.8-0.2-2.6-0.5c-0.8-0.3-1.6-0.8-2.2-1.4c-0.6-0.6-1.1-1.3-1.5-2.1c-0.4-0.8-0.5-1.7-0.5-2.6v-60.3
		c0-0.9,0.2-1.8,0.5-2.6c0.4-0.8,0.8-1.5,1.5-2.1c0.6-0.6,1.3-1.1,2.2-1.4c0.8-0.4,1.7-0.5,2.6-0.5h18.2c6.6,0,12.4,0.8,17.3,2.5
		c4.9,1.7,9,4.1,12.3,7.2c3.3,3.2,5.7,7,7.3,11.6c1.6,4.6,2.4,9.9,2.4,15.8C550,990.2,549.1,995.4,547.4,1000z M495.2,916.9
		c0-0.5,0-1,0.1-1.6c0.1-0.5,0.2-1.1,0.5-1.6l31.9-79.7c1.3-3.5,2.5-6.4,3.8-8.7c1.3-2.3,2.6-4,4.1-5.3c1.4-1.3,3-2.2,4.7-2.7
		c1.7-0.5,3.6-0.8,5.7-0.8c2.1,0,4,0.3,5.8,0.8c1.7,0.5,3.3,1.5,4.7,2.8c1.4,1.3,2.8,3.1,4.1,5.4c1.3,2.3,2.5,5.1,3.7,8.5l32,79.7
		c0.4,1,0.5,2,0.5,3c0,1.4-0.3,2.6-0.9,3.7c-0.6,1.1-1.4,2-2.3,2.8c-1,0.8-2,1.3-3.3,1.7c-1.2,0.4-2.5,0.6-3.7,0.6
		c-1.9,0-3.6-0.5-5.3-1.6c-1.6-1-2.7-2.7-3.3-4.9l-7.9-20.3h-48.6l-7.8,20.3c-0.6,2.3-1.7,3.9-3.3,4.9c-1.6,1-3.3,1.5-5.1,1.5
		c-1.2,0-2.4-0.2-3.6-0.6c-1.2-0.4-2.3-1-3.2-1.7c-0.9-0.8-1.7-1.7-2.3-2.7C495.5,919.4,495.2,918.2,495.2,916.9z M611.4,1017.6
		c-0.2,0.6-0.5,1.2-0.9,1.6c-0.4,0.5-1,0.9-1.6,1.2c-0.6,0.3-1.4,0.4-2.2,0.4h-38.2c-0.9,0-1.7-0.2-2.5-0.5
		c-0.8-0.4-1.5-0.8-2.1-1.4c-0.6-0.6-1.1-1.3-1.5-2.1c-0.4-0.8-0.6-1.6-0.6-2.5v-60.4c0-0.9,0.2-1.7,0.5-2.5
		c0.3-0.8,0.8-1.5,1.4-2.1c0.6-0.6,1.3-1.1,2.1-1.5c0.8-0.4,1.6-0.5,2.6-0.5h37.3c0.9,0,1.6,0.1,2.2,0.4c0.6,0.3,1.2,0.7,1.6,1.2
		c0.4,0.5,0.7,1,0.9,1.6c0.2,0.6,0.3,1.2,0.3,1.9c0,0.6-0.1,1.2-0.3,1.8c-0.2,0.6-0.5,1.2-0.9,1.6c-0.4,0.5-1,0.9-1.6,1.2
		c-0.6,0.3-1.4,0.4-2.2,0.4h-30.4V978h28.5c0.9,0,1.6,0.1,2.3,0.4c0.6,0.3,1.2,0.7,1.6,1.2c0.4,0.5,0.7,1,0.9,1.6
		c0.2,0.6,0.3,1.2,0.3,1.9c0,0.6-0.1,1.2-0.3,1.8c-0.2,0.6-0.5,1.2-1,1.6c-0.4,0.5-1,0.9-1.6,1.2c-0.6,0.3-1.4,0.4-2.2,0.4h-28.5
		v22.5h31.5c0.9,0,1.6,0.1,2.2,0.4c0.6,0.3,1.2,0.7,1.6,1.2c0.4,0.5,0.7,1,0.9,1.6c0.2,0.6,0.3,1.2,0.3,1.9
		C611.8,1016.3,611.6,1017,611.4,1017.6z M671.7,1017.5c-0.2,0.6-0.5,1.2-1,1.7c-0.4,0.5-1,0.9-1.6,1.2c-0.6,0.3-1.4,0.4-2.3,0.4
		h-36.4c-0.9,0-1.8-0.2-2.6-0.5c-0.8-0.4-1.6-0.8-2.2-1.5s-1.1-1.3-1.5-2.2c-0.4-0.8-0.6-1.7-0.6-2.7v-60.1c0-1.1,0.2-2.1,0.6-2.9
		c0.4-0.8,0.9-1.5,1.6-2.1c0.6-0.5,1.4-1,2.2-1.2c0.8-0.3,1.7-0.4,2.6-0.4c0.9,0,1.7,0.1,2.5,0.4c0.8,0.3,1.6,0.7,2.2,1.2
		c0.6,0.5,1.2,1.2,1.6,2.1c0.4,0.8,0.6,1.8,0.6,2.9v56.6h29.6c0.9,0,1.6,0.2,2.3,0.5c0.6,0.3,1.2,0.7,1.6,1.2c0.4,0.5,0.8,1,1,1.6
		c0.2,0.6,0.3,1.2,0.3,1.9C672,1016.3,671.9,1016.9,671.7,1017.5z M677.3,925.4c-1.2,0-2.3-0.2-3.5-0.5c-1.1-0.4-2.2-0.9-3.1-1.6
		c-0.9-0.7-1.7-1.6-2.4-2.7c-0.6-1.1-1.1-2.4-1.3-3.9c-0.6-5.4-1-10.1-1.4-14.2c-0.4-4-0.8-7.5-1.3-10.4c-0.5-2.9-1.1-5.3-1.9-7.2
		c-0.8-1.9-1.9-3.3-3.4-4.4c-1.4-1.1-3.3-1.8-5.5-2.2c-2.3-0.4-5-0.6-8.4-0.6h-21v38.2c0,1.6-0.3,3-0.9,4.3c-0.6,1.2-1.4,2.2-2.3,3
		c-1,0.8-2,1.4-3.2,1.8c-1.2,0.4-2.4,0.6-3.7,0.6c-1.3,0-2.5-0.2-3.7-0.6c-1.2-0.4-2.3-1-3.2-1.8c-0.9-0.8-1.7-1.8-2.3-3
		c-0.6-1.2-0.9-2.6-0.9-4.3v-89.4c0-1.4,0.3-2.7,0.8-3.9s1.3-2.3,2.2-3.1c0.9-0.9,2-1.6,3.2-2.1c1.2-0.5,2.5-0.8,3.9-0.8h34.2
		c5.1,0,10,0.4,14.8,1.2c4.7,0.8,8.9,2.3,12.6,4.4c3.6,2.1,6.6,4.9,8.8,8.5c2.2,3.6,3.3,8.2,3.3,13.7c0,3-0.5,5.9-1.4,8.6
		c-0.9,2.7-2.4,5.1-4.2,7.2c-1.9,2.1-4.3,3.9-7.2,5.5c-2.9,1.5-6.4,2.7-10.4,3.4v0.3c3.8,0.6,6.9,1.4,9.4,2.7c2.5,1.2,4.5,2.8,6,4.7
		c1.5,1.9,2.7,4.3,3.5,6.9c0.8,2.7,1.3,5.7,1.7,9.1c0.4,3,0.7,5.9,0.9,8.6c0.3,2.7,0.5,5.1,0.7,7.2c0.2,2.4,0.4,4.7,0.5,6.7v0.9
		c0,1.5-0.3,2.9-0.9,4c-0.6,1.2-1.3,2.1-2.3,2.9c-0.9,0.8-2,1.4-3.2,1.8C679.8,925.2,678.6,925.4,677.3,925.4z M694.4,831.8
		c-1.3,0-2.5-0.2-3.5-0.6c-1-0.4-1.8-1-2.4-1.7c-0.6-0.7-1.1-1.5-1.4-2.4c-0.3-0.9-0.5-1.8-0.5-2.8c0-1,0.2-1.9,0.5-2.8
		c0.3-0.9,0.8-1.8,1.5-2.5c0.7-0.7,1.5-1.3,2.4-1.7c1-0.5,2.1-0.7,3.4-0.7h71.7c1.3,0,2.4,0.2,3.3,0.7c1,0.5,1.8,1,2.4,1.7
		c0.7,0.7,1.1,1.5,1.5,2.4c0.3,0.9,0.5,1.8,0.5,2.8c0,1-0.2,1.9-0.5,2.8c-0.3,0.9-0.8,1.7-1.4,2.5c-0.6,0.7-1.4,1.3-2.4,1.7
		c-1,0.4-2.1,0.6-3.4,0.6h-25.5v84c0,1.6-0.3,3-0.9,4.3c-0.6,1.2-1.4,2.3-2.3,3.1c-1,0.8-2,1.5-3.3,1.9c-1.2,0.4-2.5,0.6-3.7,0.6
		c-1.3,0-2.5-0.2-3.7-0.6c-1.2-0.4-2.3-1-3.3-1.9c-1-0.8-1.7-1.9-2.3-3.1c-0.6-1.2-0.9-2.7-0.9-4.3v-84H694.4z M694.9,1014.1
		c0,1.1-0.2,2-0.6,2.9c-0.4,0.8-0.9,1.5-1.6,2c-0.6,0.5-1.4,1-2.2,1.2c-0.8,0.3-1.7,0.4-2.5,0.4c-0.9,0-1.7-0.1-2.5-0.4
		c-0.8-0.3-1.5-0.7-2.2-1.2c-0.6-0.5-1.1-1.2-1.5-2c-0.4-0.8-0.6-1.8-0.6-2.9v-60.5c0-1.1,0.2-2.1,0.6-2.9c0.4-0.8,0.9-1.5,1.6-2.1
		c0.6-0.5,1.4-1,2.2-1.2c0.8-0.3,1.7-0.4,2.5-0.4c0.9,0,1.7,0.1,2.5,0.4c0.8,0.3,1.6,0.7,2.2,1.2c0.6,0.5,1.2,1.2,1.6,2.1
		c0.4,0.8,0.6,1.8,0.6,2.9V1014.1z M771.4,1000c-1.8,4.5-4.3,8.4-7.6,11.4c-3.3,3.1-7.4,5.4-12.2,7c-4.8,1.6-10.3,2.4-16.3,2.4
		h-18.7c-0.9,0-1.8-0.2-2.6-0.5c-0.8-0.3-1.6-0.8-2.2-1.4c-0.6-0.6-1.1-1.3-1.5-2.1c-0.4-0.8-0.5-1.7-0.5-2.6v-60.3
		c0-0.9,0.2-1.8,0.5-2.6c0.4-0.8,0.8-1.5,1.5-2.1c0.6-0.6,1.3-1.1,2.2-1.4c0.8-0.4,1.7-0.5,2.6-0.5h18.2c6.6,0,12.4,0.8,17.3,2.5
		c4.9,1.7,9,4.1,12.3,7.2c3.3,3.2,5.7,7,7.3,11.6c1.6,4.6,2.4,9.9,2.4,15.8C774,990.2,773.1,995.4,771.4,1000z M842.5,1017.3
		c-0.4,0.7-0.9,1.4-1.6,1.9c-0.6,0.5-1.4,0.9-2.2,1.2c-0.8,0.3-1.7,0.4-2.5,0.4c-1.3,0-2.4-0.3-3.6-1c-1.1-0.7-1.9-1.8-2.2-3.3
		l-5.3-13.7h-32.8l-5.3,13.7c-0.4,1.5-1.2,2.6-2.2,3.3c-1.1,0.7-2.2,1-3.5,1c-0.8,0-1.6-0.1-2.5-0.4c-0.8-0.3-1.5-0.7-2.2-1.2
		c-0.6-0.5-1.1-1.1-1.5-1.8c-0.4-0.7-0.6-1.5-0.6-2.4c0-0.3,0-0.7,0.1-1c0.1-0.4,0.2-0.7,0.3-1.1l21.5-53.8c0.9-2.4,1.7-4.3,2.6-5.9
		c0.9-1.5,1.8-2.7,2.7-3.6c1-0.9,2-1.5,3.2-1.8c1.1-0.3,2.4-0.5,3.8-0.5c1.4,0,2.7,0.2,3.9,0.5c1.2,0.4,2.2,1,3.2,1.9
		c1,0.9,1.9,2.1,2.7,3.6c0.9,1.5,1.7,3.4,2.5,5.8l21.6,53.8c0.2,0.7,0.4,1.4,0.4,2C843.1,1015.7,842.9,1016.5,842.5,1017.3z
		 M795.1,898.8l-7.8,20.3c-0.6,2.3-1.7,3.9-3.3,4.9c-1.6,1-3.3,1.5-5.1,1.5c-1.2,0-2.4-0.2-3.6-0.6c-1.2-0.4-2.3-1-3.2-1.7
		c-0.9-0.8-1.7-1.7-2.3-2.7c-0.6-1.1-0.9-2.3-0.9-3.6c0-0.5,0-1,0.1-1.6c0.1-0.5,0.2-1.1,0.5-1.6l31.9-79.7c1.3-3.5,2.5-6.4,3.8-8.7
		c1.3-2.3,2.6-4,4.1-5.3c1.4-1.3,3-2.2,4.7-2.7c1.7-0.5,3.6-0.8,5.7-0.8c2.1,0,4,0.3,5.8,0.8c1.7,0.5,3.3,1.5,4.7,2.8
		c1.4,1.3,2.8,3.1,4.1,5.4c1.3,2.3,2.5,5.1,3.7,8.5l32,79.7c0.4,1,0.5,2,0.5,3c0,1.4-0.3,2.6-0.9,3.7c-0.6,1.1-1.4,2-2.3,2.8
		c-1,0.8-2.1,1.3-3.3,1.7c-1.2,0.4-2.5,0.6-3.7,0.6c-1.9,0-3.6-0.5-5.3-1.6c-1.6-1-2.7-2.7-3.3-4.9l-7.9-20.3H795.1z M798.4,794.5
		c0-1,0.2-1.9,0.5-2.8c0.3-0.9,0.8-1.8,1.5-2.5c0.7-0.7,1.5-1.3,2.4-1.7c1-0.5,2.1-0.7,3.4-0.7h25.9c1.3,0,2.4,0.2,3.3,0.7
		c1,0.5,1.8,1,2.4,1.7c0.7,0.7,1.1,1.5,1.5,2.4c0.3,0.9,0.5,1.8,0.5,2.8c0,1-0.2,1.9-0.5,2.8c-0.3,0.9-0.8,1.7-1.4,2.5
		c-0.6,0.7-1.4,1.3-2.4,1.7c-1,0.4-2.1,0.6-3.4,0.6h-19.5h-6.4c-1.3,0-2.5-0.2-3.5-0.6c-1-0.4-1.8-1-2.4-1.7
		c-0.6-0.7-1.1-1.5-1.4-2.4C798.6,796.4,798.4,795.4,798.4,794.5z M913.1,1000c-1.8,4.5-4.3,8.4-7.6,11.4c-3.3,3.1-7.4,5.4-12.2,7
		c-4.8,1.6-10.3,2.4-16.3,2.4h-18.7c-0.9,0-1.8-0.2-2.6-0.5c-0.8-0.3-1.6-0.8-2.2-1.4c-0.6-0.6-1.1-1.3-1.5-2.1
		c-0.4-0.8-0.5-1.7-0.5-2.6v-60.3c0-0.9,0.2-1.8,0.5-2.6c0.4-0.8,0.8-1.5,1.5-2.1c0.6-0.6,1.3-1.1,2.2-1.4c0.8-0.4,1.7-0.5,2.6-0.5
		h18.2c6.6,0,12.4,0.8,17.3,2.5c4.9,1.7,9,4.1,12.3,7.2c3.3,3.2,5.7,7,7.3,11.6c1.6,4.6,2.4,9.9,2.4,15.8
		C915.8,990.2,914.9,995.4,913.1,1000z M977.2,1017.6c-0.2,0.6-0.5,1.2-0.9,1.6c-0.4,0.5-1,0.9-1.6,1.2c-0.6,0.3-1.4,0.4-2.2,0.4
		h-38.2c-0.9,0-1.7-0.2-2.5-0.5c-0.8-0.4-1.5-0.8-2.1-1.4c-0.6-0.6-1.1-1.3-1.5-2.1c-0.4-0.8-0.6-1.6-0.6-2.5v-60.4
		c0-0.9,0.2-1.7,0.5-2.5c0.3-0.8,0.8-1.5,1.4-2.1c0.6-0.6,1.3-1.1,2.1-1.5c0.8-0.4,1.6-0.5,2.6-0.5h37.3c0.9,0,1.6,0.1,2.2,0.4
		c0.6,0.3,1.2,0.7,1.6,1.2c0.4,0.5,0.7,1,0.9,1.6c0.2,0.6,0.3,1.2,0.3,1.9c0,0.6-0.1,1.2-0.3,1.8c-0.2,0.6-0.5,1.2-0.9,1.6
		c-0.4,0.5-1,0.9-1.6,1.2c-0.6,0.3-1.4,0.4-2.2,0.4h-30.4V978h28.5c0.9,0,1.6,0.1,2.3,0.4c0.6,0.3,1.2,0.7,1.6,1.2
		c0.4,0.5,0.7,1,0.9,1.6c0.2,0.6,0.3,1.2,0.3,1.9c0,0.6-0.1,1.2-0.3,1.8c-0.2,0.6-0.5,1.2-1,1.6c-0.4,0.5-1,0.9-1.6,1.2
		c-0.6,0.3-1.4,0.4-2.2,0.4h-28.5v22.5h31.5c0.9,0,1.6,0.1,2.2,0.4c0.6,0.3,1.2,0.7,1.6,1.2c0.4,0.5,0.7,1,0.9,1.6
		c0.2,0.6,0.3,1.2,0.3,1.9C977.5,1016.3,977.4,1017,977.2,1017.6z M974.1,894.3c-2.3,7-5.6,13-10,18c-4.4,5-9.9,8.9-16.4,11.6
		c-6.5,2.8-14.1,4.1-22.6,4.1c-8.5,0-16-1.4-22.5-4.1c-6.5-2.8-12-6.6-16.4-11.6c-4.4-5-7.8-11-10.1-18c-2.3-7-3.4-14.7-3.4-23.2
		c0-8.5,1.1-16.3,3.4-23.3c2.3-7,5.6-13,10.1-18c4.4-5,9.9-8.9,16.4-11.7c6.5-2.8,14-4.1,22.5-4.1c8.5,0,16.1,1.4,22.6,4.1
		c6.5,2.8,12,6.6,16.4,11.7c4.4,5,7.8,11,10,18c2.3,7,3.4,14.8,3.4,23.3C977.5,879.6,976.4,887.3,974.1,894.3z M983.7,695.6
		c0,30.4-24.6,55-55,55h-478c-30.4,0-55-24.6-55-55v-183h588V695.6z M983.7,438.6h-588v-25c0-30.4,24.6-55,55-55h478
		c30.4,0,55,24.6,55,55V438.6z"/>
	<path class="st0" d="M667.4,846.9c0-3.8-0.7-6.8-2.1-9c-1.4-2.2-3.2-3.8-5.5-4.9c-2.2-1.1-4.7-1.8-7.4-2.1c-2.7-0.3-5.4-0.5-8-0.5
		h-20.1v33.4h16.2c3.1,0,6.3-0.2,9.5-0.5c3.2-0.3,6.1-1.1,8.7-2.2c2.6-1.2,4.7-2.9,6.3-5.1C666.6,853.8,667.4,850.7,667.4,846.9z"/>
</g>
</svg>
